<?xml version="1.0" encoding="utf-8"?>
<!-- Generator: Adobe Illustrator 16.0.3, SVG Export Plug-In . SVG Version: 6.00 Build 0)  -->
<!DOCTYPE svg PUBLIC "-//W3C//DTD SVG 1.1//EN" "http://www.w3.org/Graphics/SVG/1.1/DTD/svg11.dtd">
<svg version="1.1" id="Layer_1" xmlns="http://www.w3.org/2000/svg" xmlns:xlink="http://www.w3.org/1999/xlink" x="0px" y="0px"
	 width="246px" height="40.396px" viewBox="0 0 246 40.396" enable-background="new 0 0 246 40.396" xml:space="preserve">
<g>
	<g>
		<g>
			<path fill="#F05A28" d="M0.904,0.804h6.497c2.05,0,3.605,0.161,4.66,0.48c1.061,0.32,1.911,0.967,2.559,1.939
				c0.65,0.973,0.978,2.541,0.978,4.707c0,1.462-0.232,2.482-0.689,3.061c-0.459,0.578-1.365,1.018-2.713,1.329
				c1.503,0.34,2.523,0.905,3.061,1.692c0.534,0.79,0.802,2,0.802,3.629v2.32c0,1.694-0.19,2.946-0.576,3.763
				c-0.386,0.813-1.004,1.369-1.849,1.671c-0.845,0.298-2.579,0.448-5.195,0.448H0.904V0.804z M7.413,5.091v5.566
				c0.28-0.009,0.496-0.017,0.651-0.017c0.639,0,1.046-0.156,1.223-0.472c0.175-0.314,0.262-1.212,0.262-2.697
				c0-0.783-0.072-1.334-0.216-1.648C9.188,5.509,9.002,5.312,8.77,5.229S8.086,5.102,7.413,5.091z M7.413,14.555v7.004
				c0.922-0.03,1.503-0.173,1.758-0.432c0.253-0.258,0.378-0.892,0.378-1.902V16.89c0-1.072-0.112-1.722-0.342-1.948
				C8.982,14.714,8.385,14.586,7.413,14.555z"/>
			<path fill="#F05A28" d="M32.345,12.528v5.027c0,1.844-0.093,3.197-0.28,4.058c-0.183,0.862-0.58,1.667-1.188,2.414
				c-0.608,0.746-1.391,1.298-2.344,1.655c-0.956,0.354-2.047,0.531-3.286,0.531c-1.382,0-2.552-0.151-3.51-0.456
				c-0.959-0.303-1.703-0.764-2.235-1.375c-0.532-0.614-0.911-1.357-1.137-2.228c-0.227-0.872-0.34-2.177-0.34-3.92v-5.261
				c0-1.905,0.207-3.395,0.619-4.467c0.411-1.072,1.155-1.933,2.227-2.583c1.071-0.651,2.442-0.976,4.113-0.976
				c1.403,0,2.608,0.209,3.612,0.628s1.781,0.96,2.327,1.633c0.546,0.67,0.92,1.358,1.119,2.068
				C32.243,9.991,32.345,11.076,32.345,12.528z M26.099,10.982c0-1.053-0.059-1.716-0.173-1.989
				c-0.113-0.271-0.354-0.409-0.727-0.409c-0.369,0-0.618,0.138-0.741,0.409c-0.126,0.273-0.187,0.937-0.187,1.989v9.263
				c0,0.969,0.061,1.603,0.187,1.893c0.123,0.296,0.364,0.441,0.725,0.441c0.371,0,0.616-0.133,0.737-0.4
				c0.119-0.27,0.179-0.845,0.179-1.732V10.982z"/>
			<path fill="#F05A28" d="M40.836,0.804v3.265h-6.434V0.804H40.836z M40.836,5.321v20.522h-6.434V5.321H40.836z"/>
			<path fill="#F05A28" d="M49.511,0.804v25.04h-6.433V0.804H49.511z"/>
			<path fill="#F05A28" d="M65.903,15.946h-8.088v4.437c0,0.93,0.068,1.526,0.202,1.796c0.135,0.268,0.391,0.4,0.772,0.4
				c0.474,0,0.792-0.176,0.951-0.532s0.239-1.046,0.239-2.064v-2.706h5.923v1.517c0,1.265-0.078,2.241-0.238,2.922
				c-0.159,0.68-0.534,1.408-1.122,2.181c-0.588,0.773-1.331,1.351-2.235,1.74c-0.901,0.384-2.033,0.578-3.393,0.578
				c-1.321,0-2.486-0.191-3.495-0.572c-1.012-0.381-1.796-0.904-2.359-1.569c-0.563-0.666-0.95-1.395-1.169-2.196
				c-0.214-0.798-0.322-1.962-0.322-3.486v-5.983c0-1.796,0.241-3.212,0.725-4.247c0.485-1.036,1.278-1.831,2.385-2.381
				c1.101-0.553,2.369-0.829,3.802-0.829c1.751,0,3.198,0.333,4.338,0.998c1.14,0.664,1.938,1.547,2.397,2.646
				c0.46,1.1,0.688,2.644,0.688,4.633V15.946z M59.642,12.605v-1.499c0-1.063-0.059-1.748-0.171-2.058
				c-0.111-0.311-0.346-0.465-0.697-0.465c-0.432,0-0.698,0.133-0.804,0.396c-0.104,0.262-0.154,0.973-0.154,2.127v1.499H59.642z"/>
			<path fill="#F05A28" d="M74.193,5.321l-0.246,2.697c0.904-1.932,2.22-2.953,3.943-3.069v7.223c-1.145,0-1.985,0.154-2.522,0.466
				c-0.536,0.309-0.864,0.741-0.989,1.291c-0.125,0.551-0.186,1.82-0.186,3.811v8.104h-6.249V5.321H74.193z"/>
			<path fill="#F05A28" d="M109.764,0.804v16.737c0,2.503-0.028,4.114-0.078,4.83c-0.051,0.718-0.288,1.363-0.706,1.941
				c-0.417,0.579-0.988,0.978-1.704,1.198c-0.715,0.221-1.794,0.333-3.236,0.333h-3.26v-4.376c0.391,0.029,0.673,0.044,0.849,0.044
				c0.464,0,0.832-0.111,1.1-0.338c0.267-0.227,0.42-0.505,0.463-0.835c0.041-0.33,0.063-0.971,0.063-1.917V0.804H109.764z"/>
			<path fill="#F05A28" d="M126.403,5.321v20.522h-6.356l0.108-1.705c-0.433,0.691-0.966,1.212-1.599,1.558
				c-0.635,0.347-1.364,0.518-2.19,0.518c-0.938,0-1.717-0.164-2.335-0.494c-0.619-0.328-1.074-0.768-1.369-1.314
				c-0.293-0.545-0.477-1.117-0.548-1.71c-0.07-0.592-0.108-1.77-0.108-3.531V5.321h6.247v13.966c0,1.597,0.051,2.548,0.148,2.845
				c0.096,0.299,0.362,0.447,0.795,0.447c0.466,0,0.742-0.154,0.828-0.463c0.089-0.311,0.131-1.305,0.131-2.985V5.321H126.403z"/>
			<path fill="#F05A28" d="M135.081,0.804v3.265h-6.435V0.804H135.081z M135.081,5.321v20.522h-6.435V5.321H135.081z"/>
			<path fill="#F05A28" d="M151.131,13.071h-5.892v-2.368c0-0.823-0.067-1.385-0.2-1.678c-0.135-0.295-0.382-0.441-0.742-0.441
				s-0.604,0.13-0.729,0.387c-0.121,0.259-0.182,0.836-0.182,1.732v9.68c0,0.733,0.091,1.283,0.276,1.65
				c0.187,0.364,0.458,0.546,0.818,0.546c0.423,0,0.708-0.189,0.858-0.572c0.152-0.378,0.227-1.102,0.227-2.164v-2.443h5.564
				c-0.01,1.641-0.069,2.87-0.178,3.689c-0.109,0.82-0.45,1.658-1.036,2.52c-0.582,0.861-1.341,1.511-2.279,1.95
				c-0.938,0.438-2.101,0.655-3.479,0.655c-1.762,0-3.16-0.301-4.19-0.902c-1.033-0.605-1.763-1.45-2.191-2.537
				c-0.428-1.09-0.639-2.632-0.639-4.632v-5.831c0-1.744,0.174-3.057,0.525-3.945c0.352-0.884,1.097-1.675,2.242-2.37
				c1.144-0.698,2.537-1.047,4.175-1.047c1.629,0,3.02,0.346,4.176,1.039c1.154,0.688,1.924,1.561,2.306,2.613
				C150.941,9.651,151.131,11.142,151.131,13.071z"/>
			<path fill="#F05A28" d="M167.14,15.946h-8.089v4.437c0,0.93,0.064,1.526,0.199,1.796c0.135,0.268,0.393,0.4,0.773,0.4
				c0.477,0,0.793-0.176,0.952-0.532c0.16-0.356,0.24-1.046,0.24-2.064v-2.706h5.924v1.517c0,1.265-0.08,2.241-0.239,2.922
				c-0.16,0.68-0.535,1.408-1.125,2.181c-0.585,0.773-1.329,1.351-2.232,1.74c-0.9,0.384-2.033,0.578-3.395,0.578
				c-1.318,0-2.484-0.191-3.495-0.572s-1.797-0.904-2.36-1.569c-0.561-0.666-0.949-1.395-1.166-2.196
				c-0.216-0.798-0.324-1.962-0.324-3.486v-5.983c0-1.796,0.241-3.212,0.727-4.247c0.484-1.036,1.28-1.831,2.38-2.381
				c1.104-0.553,2.374-0.829,3.806-0.829c1.752,0,3.199,0.333,4.338,0.998c1.141,0.664,1.938,1.547,2.397,2.646
				c0.458,1.1,0.689,2.644,0.689,4.633V15.946z M160.876,12.605v-1.499c0-1.063-0.056-1.748-0.171-2.058
				c-0.112-0.311-0.346-0.465-0.695-0.465c-0.434,0-0.702,0.133-0.806,0.396c-0.103,0.262-0.153,0.973-0.153,2.127v1.499H160.876z"
				/>
			<path fill="#F05A28" d="M173.34,20.738v5.105h-4.717v-5.105H173.34z"/>
			<path fill="#F05A28" d="M188.838,13.071h-5.895v-2.368c0-0.823-0.067-1.385-0.201-1.678c-0.133-0.295-0.381-0.441-0.742-0.441
				c-0.36,0-0.604,0.13-0.726,0.387c-0.123,0.259-0.187,0.836-0.187,1.732v9.68c0,0.733,0.093,1.283,0.279,1.65
				c0.186,0.364,0.458,0.546,0.819,0.546c0.423,0,0.708-0.189,0.856-0.572c0.151-0.378,0.228-1.102,0.228-2.164v-2.443h5.567
				c-0.013,1.641-0.071,2.87-0.181,3.689c-0.104,0.82-0.452,1.658-1.034,2.52c-0.584,0.861-1.345,1.511-2.281,1.95
				c-0.938,0.438-2.1,0.655-3.481,0.655c-1.761,0-3.159-0.301-4.189-0.902c-1.032-0.605-1.762-1.45-2.188-2.537
				c-0.428-1.09-0.642-2.632-0.642-4.632v-5.831c0-1.744,0.173-3.057,0.526-3.945c0.349-0.884,1.097-1.675,2.242-2.37
				c1.143-0.698,2.537-1.047,4.174-1.047c1.631,0,3.022,0.346,4.177,1.039c1.155,0.688,1.923,1.561,2.305,2.613
				C188.646,9.651,188.838,11.142,188.838,13.071z"/>
			<path fill="#F05A28" d="M204.824,12.528v5.027c0,1.844-0.091,3.197-0.275,4.058c-0.186,0.862-0.583,1.667-1.189,2.414
				c-0.608,0.746-1.393,1.298-2.344,1.655c-0.954,0.354-2.049,0.531-3.287,0.531c-1.382,0-2.553-0.151-3.51-0.456
				c-0.958-0.303-1.705-0.764-2.234-1.375c-0.532-0.614-0.909-1.357-1.138-2.228c-0.228-0.872-0.341-2.177-0.341-3.92v-5.261
				c0-1.905,0.205-3.395,0.62-4.467c0.411-1.072,1.156-1.933,2.226-2.583c1.073-0.651,2.444-0.976,4.113-0.976
				c1.402,0,2.606,0.209,3.612,0.628s1.782,0.96,2.327,1.633c0.548,0.67,0.921,1.358,1.121,2.068
				C204.726,9.991,204.824,11.076,204.824,12.528z M198.578,10.982c0-1.053-0.057-1.716-0.17-1.989
				c-0.114-0.271-0.354-0.409-0.725-0.409c-0.371,0-0.621,0.138-0.742,0.409c-0.126,0.273-0.188,0.937-0.188,1.989v9.263
				c0,0.969,0.063,1.603,0.188,1.893c0.121,0.296,0.365,0.441,0.727,0.441c0.37,0,0.614-0.133,0.733-0.4
				c0.118-0.27,0.177-0.845,0.177-1.732V10.982z"/>
			<path fill="#F05A28" d="M213.055,5.321l-0.106,1.954c0.481-0.774,1.06-1.356,1.729-1.743c0.671-0.388,1.434-0.583,2.29-0.583
				c1.671,0,2.986,0.777,3.944,2.326c0.525-0.774,1.119-1.356,1.778-1.743c0.658-0.388,1.392-0.583,2.194-0.583
				c1.063,0,1.942,0.259,2.639,0.774c0.695,0.517,1.141,1.146,1.338,1.895c0.196,0.747,0.294,1.962,0.294,3.643v14.583h-6.062
				V12.466c0-1.752-0.062-2.838-0.179-3.254c-0.119-0.42-0.394-0.628-0.83-0.628c-0.439,0-0.728,0.207-0.857,0.619
				c-0.127,0.412-0.192,1.5-0.192,3.263v13.378h-6.062V12.807c0-2.01-0.051-3.218-0.148-3.62c-0.096-0.4-0.366-0.603-0.809-0.603
				c-0.28,0-0.519,0.106-0.714,0.317c-0.195,0.212-0.306,0.47-0.325,0.773c-0.02,0.305-0.028,0.951-0.028,1.94v14.229h-6.063V5.321
				H213.055z"/>
		</g>
	</g>
	<g>
		<g>
			<path fill="#666666" d="M2.036,40.273v-5.7H0v-1.161h5.451v1.161H3.42v5.7H2.036z"/>
			<path fill="#666666" d="M6.349,40.273v-6.861h1.387v2.701h2.714v-2.701h1.383v6.861h-1.383v-2.997H7.735v2.997H6.349z"/>
			<path fill="#666666" d="M13.267,40.273v-6.861h5.087v1.161h-3.702v1.522h3.446v1.154h-3.446v1.867h3.833v1.156H13.267z"/>
			<path fill="#666666" d="M21.97,38.042l1.35-0.133c0.081,0.453,0.245,0.786,0.494,0.997c0.247,0.214,0.582,0.32,1.003,0.32
				c0.446,0,0.78-0.095,1.009-0.284c0.227-0.188,0.339-0.409,0.339-0.662c0-0.163-0.046-0.301-0.143-0.416
				c-0.098-0.112-0.262-0.211-0.5-0.294c-0.16-0.058-0.529-0.157-1.108-0.302c-0.741-0.182-1.262-0.409-1.562-0.677
				c-0.423-0.377-0.634-0.838-0.634-1.381c0-0.351,0.1-0.677,0.299-0.98c0.197-0.306,0.484-0.533,0.857-0.696
				c0.37-0.157,0.821-0.238,1.349-0.238c0.859,0,1.51,0.188,1.943,0.568c0.438,0.375,0.665,0.88,0.686,1.51l-1.385,0.062
				c-0.059-0.354-0.186-0.608-0.381-0.76c-0.194-0.155-0.489-0.232-0.877-0.232c-0.402,0-0.717,0.082-0.946,0.247
				c-0.146,0.107-0.221,0.247-0.221,0.427c0,0.162,0.069,0.302,0.207,0.417c0.177,0.146,0.601,0.298,1.272,0.459
				c0.675,0.157,1.173,0.324,1.497,0.494c0.323,0.17,0.574,0.402,0.758,0.695c0.184,0.295,0.272,0.66,0.272,1.094
				c0,0.394-0.109,0.76-0.329,1.103c-0.216,0.343-0.524,0.599-0.924,0.767c-0.4,0.167-0.896,0.25-1.495,0.25
				c-0.864,0-1.531-0.2-1.997-0.602C22.338,39.394,22.062,38.808,21.97,38.042z"/>
			<path fill="#666666" d="M28.696,40.273v-6.861h2.072l1.246,4.68l1.229-4.68h2.079v6.861h-1.287v-5.399l-1.364,5.399h-1.334
				l-1.354-5.399v5.399H28.696z"/>
			<path fill="#666666" d="M42.884,40.273h-1.507l-0.598-1.558h-2.744l-0.566,1.558h-1.467l2.671-6.861h1.465L42.884,40.273z
				 M40.334,37.56l-0.945-2.545l-0.927,2.545H40.334z"/>
			<path fill="#666666" d="M43.625,40.273v-6.861h2.914c0.732,0,1.268,0.063,1.598,0.187c0.334,0.124,0.6,0.343,0.798,0.657
				c0.201,0.315,0.301,0.677,0.301,1.08c0,0.515-0.151,0.941-0.454,1.275c-0.302,0.337-0.755,0.548-1.356,0.634
				c0.298,0.177,0.546,0.369,0.741,0.578c0.193,0.206,0.459,0.578,0.79,1.111l0.834,1.339h-1.656l-1-1.491
				c-0.355-0.533-0.6-0.873-0.73-1.01c-0.132-0.14-0.27-0.232-0.416-0.285c-0.146-0.052-0.378-0.077-0.698-0.077H45.01v2.863H43.625
				z M45.01,36.317h1.024c0.665,0,1.078-0.031,1.244-0.085c0.165-0.058,0.297-0.154,0.388-0.292
				c0.098-0.137,0.142-0.309,0.142-0.515c0-0.229-0.062-0.419-0.185-0.56c-0.122-0.143-0.297-0.231-0.521-0.27
				c-0.111-0.016-0.448-0.023-1.014-0.023H45.01V36.317z"/>
			<path fill="#666666" d="M52.086,40.273v-5.7h-2.037v-1.161H55.5v1.161h-2.03v5.7H52.086z"/>
			<path fill="#666666" d="M60.032,40.273l-1.639-6.861h1.418l1.035,4.714l1.254-4.714h1.646l1.204,4.795l1.053-4.795h1.395
				l-1.667,6.861H64.26l-1.362-5.127l-1.364,5.127H60.032z"/>
			<path fill="#666666" d="M73.762,40.273h-1.507l-0.599-1.558h-2.742l-0.566,1.558h-1.471l2.673-6.861h1.465L73.762,40.273z
				 M71.211,37.56l-0.945-2.545l-0.927,2.545H71.211z"/>
			<path fill="#666666" d="M75.42,40.273v-2.888l-2.514-3.974h1.622l1.616,2.715l1.58-2.715h1.598l-2.524,3.984v2.877H75.42z"/>
			<path fill="#666666" d="M84.045,40.273v-5.7h-2.037v-1.161h5.452v1.161h-2.03v5.7H84.045z"/>
			<path fill="#666666" d="M87.899,36.886c0-0.699,0.105-1.284,0.314-1.76c0.157-0.35,0.369-0.661,0.639-0.941
				c0.27-0.276,0.565-0.483,0.888-0.616c0.426-0.18,0.919-0.272,1.478-0.272c1.013,0,1.821,0.313,2.425,0.942
				c0.608,0.626,0.911,1.498,0.911,2.616c0,1.104-0.3,1.973-0.902,2.597c-0.602,0.626-1.406,0.942-2.417,0.942
				c-1.018,0-1.828-0.313-2.431-0.938C88.202,38.837,87.899,37.976,87.899,36.886z M89.326,36.841c0,0.776,0.18,1.363,0.539,1.765
				c0.36,0.402,0.813,0.601,1.366,0.601s1.007-0.198,1.358-0.596c0.355-0.397,0.531-0.993,0.531-1.789
				c0-0.788-0.171-1.373-0.518-1.761c-0.343-0.385-0.801-0.581-1.372-0.581s-1.031,0.197-1.38,0.59
				C89.5,35.46,89.326,36.05,89.326,36.841z"/>
			<path fill="#666666" d="M98.303,33.412h2.743c0.544,0,0.947,0.024,1.213,0.068c0.267,0.046,0.506,0.14,0.717,0.285
				c0.211,0.143,0.386,0.334,0.528,0.57c0.14,0.239,0.21,0.508,0.21,0.807c0,0.318-0.087,0.613-0.261,0.882
				s-0.407,0.471-0.705,0.604c0.42,0.123,0.739,0.331,0.966,0.622c0.223,0.295,0.335,0.64,0.335,1.035
				c0,0.313-0.073,0.616-0.217,0.911c-0.145,0.295-0.342,0.529-0.594,0.706c-0.251,0.175-0.56,0.285-0.931,0.325
				c-0.229,0.022-0.786,0.042-1.671,0.046h-2.334V33.412z M99.689,34.556v1.586h0.906c0.539,0,0.875-0.008,1.007-0.024
				c0.236-0.028,0.425-0.107,0.56-0.245c0.135-0.136,0.203-0.313,0.203-0.536c0-0.213-0.06-0.384-0.178-0.515
				c-0.113-0.133-0.289-0.215-0.518-0.242c-0.141-0.015-0.535-0.023-1.185-0.023H99.689z M99.689,37.283v1.834h1.28
				c0.501,0,0.816-0.013,0.95-0.043c0.206-0.035,0.374-0.127,0.504-0.271c0.13-0.146,0.194-0.34,0.194-0.584
				c0-0.204-0.05-0.381-0.149-0.524c-0.101-0.141-0.243-0.247-0.433-0.313c-0.189-0.066-0.601-0.099-1.23-0.099H99.689z"/>
			<path fill="#666666" d="M105.21,33.412h1.387v3.715c0,0.59,0.016,0.974,0.05,1.149c0.062,0.279,0.202,0.506,0.424,0.676
				c0.223,0.17,0.528,0.254,0.915,0.254c0.393,0,0.69-0.08,0.889-0.239c0.199-0.161,0.321-0.36,0.361-0.593
				c0.041-0.235,0.061-0.622,0.061-1.166v-3.796h1.385v3.604c0,0.825-0.038,1.405-0.111,1.748c-0.075,0.339-0.215,0.626-0.414,0.86
				c-0.203,0.233-0.471,0.419-0.809,0.559c-0.336,0.141-0.777,0.211-1.318,0.211c-0.655,0-1.152-0.077-1.491-0.229
				s-0.605-0.349-0.803-0.591c-0.196-0.243-0.325-0.496-0.387-0.76c-0.092-0.394-0.138-0.974-0.138-1.743V33.412z"/>
			<path fill="#666666" d="M113.944,40.273v-2.888l-2.514-3.974h1.623l1.615,2.715l1.582-2.715h1.593l-2.519,3.984v2.877H113.944z"
				/>
			<path fill="#666666" d="M125.413,37.752l1.342,0.428c-0.206,0.747-0.546,1.303-1.025,1.666c-0.479,0.363-1.089,0.548-1.822,0.548
				c-0.913,0-1.661-0.313-2.248-0.938c-0.586-0.619-0.879-1.472-0.879-2.551c0-1.144,0.294-2.031,0.884-2.661
				c0.589-0.632,1.364-0.948,2.325-0.948c0.84,0,1.521,0.248,2.046,0.744c0.312,0.294,0.547,0.717,0.702,1.263l-1.372,0.329
				c-0.08-0.355-0.248-0.638-0.507-0.844c-0.257-0.206-0.57-0.309-0.938-0.309c-0.508,0-0.923,0.184-1.24,0.548
				c-0.313,0.365-0.473,0.957-0.473,1.775c0,0.866,0.156,1.482,0.468,1.851c0.313,0.371,0.72,0.553,1.219,0.553
				c0.366,0,0.683-0.114,0.948-0.348C125.108,38.623,125.297,38.255,125.413,37.752z"/>
			<path fill="#666666" d="M127.948,40.273v-6.861h1.386v2.701h2.714v-2.701h1.387v6.861h-1.387v-2.997h-2.714v2.997H127.948z"/>
			<path fill="#666666" d="M134.867,40.273v-6.861h5.087v1.161h-3.702v1.522h3.443v1.154h-3.443v1.867h3.832v1.156H134.867z"/>
			<path fill="#666666" d="M147.446,40.273h-1.508l-0.6-1.558h-2.741l-0.566,1.558h-1.47l2.672-6.861h1.466L147.446,40.273z
				 M144.896,37.56l-0.944-2.545l-0.93,2.545H144.896z"/>
			<path fill="#666666" d="M148.18,40.273v-6.861h2.223c0.845,0,1.393,0.037,1.649,0.104c0.392,0.102,0.722,0.327,0.985,0.671
				c0.266,0.347,0.398,0.79,0.398,1.337c0,0.421-0.078,0.776-0.229,1.061c-0.154,0.287-0.348,0.515-0.584,0.678
				c-0.235,0.163-0.475,0.273-0.717,0.326c-0.331,0.064-0.811,0.098-1.437,0.098h-0.905v2.587H148.18z M149.564,34.573v1.948h0.759
				c0.546,0,0.911-0.034,1.095-0.108c0.186-0.073,0.33-0.184,0.434-0.337c0.106-0.154,0.157-0.329,0.157-0.533
				c0-0.25-0.072-0.454-0.222-0.617c-0.146-0.163-0.332-0.267-0.556-0.305c-0.165-0.031-0.499-0.048-0.997-0.048H149.564z"/>
			<path fill="#666666" d="M154.572,40.273v-6.861h5.086v1.161h-3.699v1.522h3.442v1.154h-3.442v1.867h3.831v1.156H154.572z"/>
			<path fill="#666666" d="M160.971,40.273v-6.861h2.913c0.734,0,1.267,0.063,1.6,0.187c0.334,0.124,0.599,0.343,0.797,0.657
				c0.2,0.315,0.3,0.677,0.3,1.08c0,0.515-0.151,0.941-0.453,1.275c-0.301,0.337-0.754,0.548-1.355,0.634
				c0.299,0.177,0.546,0.369,0.738,0.578c0.197,0.206,0.46,0.578,0.791,1.111l0.837,1.339h-1.656l-1.004-1.491
				c-0.354-0.533-0.597-0.873-0.728-1.01c-0.133-0.14-0.269-0.232-0.416-0.285c-0.149-0.052-0.381-0.077-0.697-0.077h-0.282v2.863
				H160.971z M162.354,36.317h1.026c0.663,0,1.079-0.031,1.245-0.085c0.165-0.058,0.293-0.154,0.388-0.292
				c0.093-0.137,0.14-0.309,0.14-0.515c0-0.229-0.063-0.419-0.185-0.56c-0.122-0.143-0.297-0.231-0.522-0.27
				c-0.111-0.016-0.449-0.023-1.01-0.023h-1.082V36.317z"/>
			<path fill="#666666" d="M170.554,40.273v-6.861h1.386v2.701h2.713v-2.701h1.386v6.861h-1.386v-2.997h-2.713v2.997H170.554z"/>
			<path fill="#666666" d="M177.471,40.273v-6.861h5.088v1.161h-3.702v1.522h3.445v1.154h-3.445v1.867h3.834v1.156H177.471z"/>
			<path fill="#666666" d="M190.052,40.273h-1.508l-0.599-1.558h-2.744l-0.566,1.558h-1.469l2.671-6.861h1.466L190.052,40.273z
				 M187.499,37.56l-0.945-2.545l-0.925,2.545H187.499z"/>
			<path fill="#666666" d="M191.617,40.273v-5.7h-2.035v-1.161h5.452v1.161h-2.032v5.7H191.617z"/>
			<path fill="#666666" d="M195.886,40.273v-6.861h1.387v6.861H195.886z"/>
			<path fill="#666666" d="M198.604,40.273v-6.861h1.347l2.81,4.583v-4.583h1.288v6.861h-1.393l-2.765-4.473v4.473H198.604z"/>
			<path fill="#666666" d="M208.702,37.752v-1.155h2.988v2.73c-0.289,0.283-0.711,0.53-1.262,0.745
				c-0.551,0.211-1.106,0.321-1.675,0.321c-0.717,0-1.341-0.153-1.875-0.454c-0.535-0.301-0.935-0.733-1.203-1.291
				c-0.269-0.562-0.401-1.168-0.401-1.827c0-0.713,0.149-1.351,0.449-1.906s0.737-0.981,1.313-1.275
				c0.442-0.229,0.99-0.344,1.644-0.344c0.852,0,1.516,0.179,1.996,0.539c0.477,0.355,0.789,0.849,0.926,1.479l-1.376,0.256
				c-0.099-0.336-0.279-0.602-0.546-0.795c-0.266-0.196-0.6-0.295-1-0.295c-0.604,0-1.086,0.192-1.444,0.578
				c-0.356,0.381-0.533,0.952-0.533,1.707c0,0.814,0.18,1.426,0.542,1.832c0.363,0.406,0.835,0.609,1.423,0.609
				c0.289,0,0.58-0.057,0.872-0.17c0.29-0.112,0.541-0.252,0.75-0.413v-0.871H208.702z"/>
			<path fill="#666666" d="M215.351,36.886c0-0.699,0.103-1.284,0.311-1.76c0.157-0.35,0.371-0.661,0.642-0.941
				c0.27-0.276,0.563-0.483,0.885-0.616c0.429-0.18,0.922-0.272,1.48-0.272c1.009,0,1.819,0.313,2.426,0.942
				c0.606,0.626,0.91,1.498,0.91,2.616c0,1.104-0.301,1.973-0.903,2.597c-0.602,0.626-1.407,0.942-2.415,0.942
				c-1.019,0-1.832-0.313-2.434-0.938C215.65,38.837,215.351,37.976,215.351,36.886z M216.775,36.841
				c0,0.776,0.181,1.363,0.541,1.765c0.356,0.402,0.813,0.601,1.365,0.601s1.004-0.198,1.359-0.596
				c0.354-0.397,0.531-0.993,0.531-1.789c0-0.788-0.173-1.373-0.517-1.761c-0.346-0.385-0.804-0.581-1.374-0.581
				c-0.572,0-1.031,0.197-1.382,0.59C216.951,35.46,216.775,36.05,216.775,36.841z"/>
			<path fill="#666666" d="M223.043,40.273v-6.861h1.387v6.861H223.043z"/>
			<path fill="#666666" d="M225.784,40.273V33.47h1.387v5.647h3.444v1.156H225.784z"/>
		</g>
	</g>
	<g>
		<path fill="#F7931E" d="M98.768,16.982c1.119,7.582-4.613,10.237-9.673,10.237c-5.051,0-10.063-2.428-10.063-8.078
			c0-5.217,5.209-9.569,7.281-12.895C88.784,2.281,89.095,0,89.095,0s0.579,2.985,3.061,6.759
			C94.011,9.581,98.405,14.529,98.768,16.982z"/>
	</g>
</g>
<g>
	<path fill="#808080" d="M234.841,6.928h-1.705V6.313h4.15v0.616h-1.714v4.99h-0.731V6.928z"/>
	<path fill="#808080" d="M242.631,9.456c-0.041-0.781-0.092-1.721-0.083-2.42h-0.025c-0.191,0.657-0.424,1.355-0.707,2.129
		l-0.99,2.72h-0.548l-0.907-2.67c-0.266-0.79-0.49-1.513-0.648-2.179h-0.016c-0.018,0.699-0.06,1.639-0.109,2.479l-0.149,2.403
		h-0.69l0.391-5.605h0.924l0.956,2.711c0.233,0.691,0.425,1.306,0.566,1.888h0.024c0.142-0.565,0.341-1.181,0.59-1.888l0.999-2.711
		h0.923l0.349,5.605h-0.706L242.631,9.456z"/>
</g>
</svg>
