<?xml version="1.0" encoding="utf-8"?>
<!-- Generator: Adobe Illustrator 22.1.0, SVG Export Plug-In . SVG Version: 6.00 Build 0)  -->
<svg version="1.1" id="Layer_1" xmlns="http://www.w3.org/2000/svg" xmlns:xlink="http://www.w3.org/1999/xlink" x="0px" y="0px"
	 viewBox="0 0 200 75" style="enable-background:new 0 0 200 75;" xml:space="preserve">
<style type="text/css">
	.st0{fill:#4A4A49;}
</style>
<g>
	<path class="st0" d="M196.7,46.2c-1.8,0-3.3,1.4-3.3,3.3c0,1.9,1.5,3.3,3.3,3.3c1.8,0,3.3-1.4,3.3-3.3
		C200,47.7,198.5,46.2,196.7,46.2z M196.7,52.4c-1.5,0-2.7-1.2-2.7-2.8c0-1.6,1.2-2.8,2.7-2.8c1.5,0,2.7,1.2,2.7,2.8
		C199.4,51.1,198.2,52.4,196.7,52.4z"/>
	<path class="st0" d="M198.2,48.7c0-0.7-0.4-1.1-1.3-1.1h-1.5v3.9h0.6v-1.7h0.6l1,1.7h0.6l-1.1-1.7
		C197.8,49.7,198.2,49.4,198.2,48.7z M196.6,49.3H196v-1.2h0.8c0.4,0,0.8,0.1,0.8,0.6C197.6,49.3,197.2,49.3,196.6,49.3z"/>
	<path class="st0" d="M18.9,46c-0.2,1-0.7,1.7-1.4,2.2c-0.7,0.5-2.1,0.7-4,0.7H11v1.7h23.2V49h-2.4c-2,0-3.4-0.3-4.1-0.8
		c-0.7-0.5-1.1-1.4-1.3-2.6c-0.2-1.1-0.3-3.5-0.3-7V6.4h7.2c2.5,0,3.2,0.2,4.2,0.4c1,0.3,1.9,1.1,2.8,2.4c0.9,1.3,1.6,3.5,2.1,6.5
		l0,0.1h1.8L44,4.5H0.2L0,15.9h1.9l0-0.1c0.5-2.9,1.1-5,2-6.4c0.9-1.4,1.8-2.2,2.8-2.5c1-0.3,3-0.4,5.9-0.4h6.6v32.2
		C19.2,42.4,19.1,45,18.9,46z"/>
	<path class="st0" d="M110.4,21.5c-1.7,0-3.4,0.7-5.2,2.1c-1.7,1.3-2.8,3.5-3.5,5c-0.1-2.9-0.5-5.5-1.1-7l-0.1-0.2l-0.2,0
		c-3.4,1.1-6.2,1.7-8.3,2l-0.1,0V25h0.9c1.4,0,2.4,0.2,2.9,0.6c0.5,0.4,0.8,0.9,0.9,1.6c0.1,0.7,0.1,2.8,0.1,5.9V41
		c0,3.2-0.1,5.4-0.2,6c-0.1,0.6-0.4,1.1-1,1.5c-0.5,0.4-1.5,0.5-2.8,0.5h-0.9v1.6h15V49H106c-1.4,0-2.4-0.2-2.9-0.6
		c-0.5-0.4-0.8-0.9-0.9-1.6c-0.1-0.7-0.1-2.7-0.1-5.8v-4.9c0-2.5,0.2-4.4,0.6-5.8c0.4-1.4,1.2-2.7,2.6-4c1.3-1.3,2.4-1.9,3.4-1.9
		c0.7,0,1.3,0.5,1.7,1.6c0.6,1.7,1.5,2.6,2.7,2.6c0.7,0,1.3-0.3,1.7-0.8c0.5-0.5,0.7-1.1,0.7-1.8c0-1-0.4-2-1.3-3
		C113.2,22,111.9,21.5,110.4,21.5z"/>
	<path class="st0" d="M86,21.5c-1.7,0-3.4,0.7-5.2,2.1c-1.7,1.3-2.8,3.5-3.5,5c-0.1-2.9-0.5-5.5-1.1-7l-0.1-0.2l-0.2,0
		c-3.4,1.1-6.2,1.7-8.3,2l-0.1,0V25h0.9c1.4,0,2.4,0.2,2.9,0.6c0.5,0.4,0.8,0.9,0.9,1.6c0.1,0.7,0.1,2.8,0.1,5.9V41
		c0,3.2-0.1,5.4-0.2,6c-0.1,0.6-0.4,1.1-1,1.5c-0.5,0.4-1.5,0.5-2.8,0.5h-0.9v1.6h15V49h-1.1c-1.4,0-2.4-0.2-2.9-0.6
		c-0.5-0.4-0.8-0.9-0.9-1.6C77.7,46,77.7,44,77.7,41v-4.9c0-2.5,0.2-4.4,0.6-5.8c0.4-1.4,1.2-2.7,2.6-4c1.3-1.3,2.4-1.9,3.4-1.9
		c0.7,0,1.3,0.5,1.7,1.6c0.6,1.7,1.5,2.6,2.7,2.6c0.7,0,1.3-0.3,1.7-0.8c0.5-0.5,0.7-1.1,0.7-1.8c0-1-0.4-2-1.3-3
		C88.8,22,87.5,21.5,86,21.5z"/>
	<path class="st0" d="M182.9,33.4c-2.5-1.1-4.2-2.2-5.1-3c-0.9-0.8-1.3-1.9-1.3-3c0-1.1,0.4-2,1.2-2.8c0.8-0.8,1.9-1.2,3.2-1.2
		c1.7,0,3.2,0.7,4.4,2.2c1.3,1.4,2.1,3.2,2.6,5.2l0,0.1h1.6V22h-1.5l0,0.1c-0.5,1.2-1.1,2.1-1.4,2.6c-1.8-2.2-3.6-3.1-5.7-3.1
		c-2.4,0-4.3,0.9-5.6,2.5c-1.3,1.7-2,3.5-2,5.3c0,1.9,0.6,3.6,1.9,4.9c1.2,1.3,3.3,2.7,6.1,4.1c2.6,1.3,4.4,2.4,5.3,3.3
		c0.9,0.9,1.3,2,1.3,3.4c0,1.2-0.4,2.3-1.2,3.3c-0.8,1-2.1,1.5-3.7,1.5c-3.8,0-6.5-2.6-8-7.8l0-0.1H173v9.4h1.6l0-0.1
		c0.4-1.3,0.8-2.6,1.3-3.2c2.3,2.4,4.6,3.6,6.8,3.6c2.4,0,4.5-0.8,6.1-2.3c1.6-1.5,2.4-3.6,2.4-6c0-1.6-0.4-3.2-1.3-4.9
		C189.2,36.9,186.8,35.2,182.9,33.4z"/>
	<path class="st0" d="M55,24.3l0.4,0c2.1,0,3.5,0.7,3.5,1.6c0,0.2-0.4,1.8-1.4,4l-6.1,14.5L44,28.9c-0.9-1.9-1.3-3.3-1.3-3.5
		c0-0.6,1.1-0.9,3-1l0.4,0v-1.9H32.7v1.9H33c1.4,0,2.3,0.2,2.9,0.7c0.5,0.5,1.3,2.1,2.2,3.9l10.5,22.5l-2.2,5h0l-2.7,6.3L41.8,67v0
		l-0.9,2.2c0,0,0,0,0,0.1c-0.1,0.2-0.2,0.3-0.3,0.5c0,0,0,0,0,0c-0.8,1.2-1.4,0-1.4,0s0,0,0,0c-0.4-1-1.5-1.7-2.7-1.6
		c-1.3,0.1-2.5,1.3-2.7,2.5c0,0.2,0,0.4,0,0.6c0,0.1,0,0.1,0,0.2c0.1,0.6,0.2,0.8,0.4,1.3l0,0.1c0.3,0.5,1,1.1,1.5,1.3
		c0.1,0,0.2,0.1,0.3,0.1c0.1,0,0.1,0,0.2,0c0,0,0.1,0,0.1,0c0.4,0.1,0.8,0.2,1.1,0.2c0.1,0,0.2,0,0.3,0c0,0,0.1,0,0.1,0
		c0.1,0,0.2,0,0.3,0c0.1,0,0.2,0,0.3-0.1c0.2,0,0.3-0.1,0.4-0.1c0.1,0,0.1,0,0.2-0.1c0.1,0,0.2-0.1,0.4-0.2c0.2-0.1,0.5-0.3,0.7-0.5
		c0.4-0.3,0.9-0.8,1.3-1.3c0.5-0.7,1.4-2.5,1.8-3.5l0.2-0.4c0.2-0.5,0.4-0.9,0.6-1.5l0.8-1.8h0l14.7-34.6c1-2.3,1.9-4.4,2.5-5.1
		c0.6-0.7,1.6-1,3-1.1l0.4,0v-1.9H55V24.3z"/>
	<path class="st0" d="M139,44.2c-1.7,3.6-4.5,5.4-8.5,5.4c-2.9,0-5.1-1.2-6.6-3.5c-1.5-2.4-2.2-6-2.2-10.8c0-0.6,0-1.6,0.1-2.9
		l0.1-1.3c0.8-5,3.1-7.4,7.1-7.4c1.6,0,3,0.5,4.1,1.6c1.1,1,1.7,3,1.7,4.9c0,0.3,0,0.7-0.1,1.2H124v1.3H141l0-0.2
		c-0.1-2.6-1.2-5-3.2-7.3c-2-2.2-4.9-3.4-8.5-3.4c-3.9,0-7.1,1.5-9.7,4.4c-2.6,2.9-3.9,6.6-3.9,11c0,3.1,0.7,5.8,2,7.9
		c1.3,2.2,3.1,3.9,5.2,5.1c2.1,1.2,4.3,1.8,6.7,1.8c2.5,0,4.9-0.7,7.1-2c2.2-1.3,3.6-3.2,4.4-5.5l0.1-0.3h-2L139,44.2z"/>
	<path class="st0" d="M153,48.2c-0.5-0.4-0.8-0.9-0.9-1.6c-0.1-0.8-0.1-2.6-0.1-5.6V0h-1l-0.1,0c-0.7,0.3-2,0.6-3.8,0.9
		c-1.8,0.3-3.5,0.5-4.8,0.5h-0.2v2h0.2c1.9,0,3.1,0.4,3.6,1c0.5,0.7,0.7,2.5,0.7,5.4v31.2c0,3.2-0.1,5.1-0.2,5.8
		c-0.1,0.6-0.4,1.1-0.9,1.4c-0.5,0.3-1.5,0.5-2.8,0.5h-1.2v2h14.2v-2h-0.2C154.3,48.8,153.5,48.6,153,48.2z"/>
	<path class="st0" d="M166.8,48.2c-0.5-0.4-0.8-0.9-0.9-1.6c-0.1-0.8-0.1-2.6-0.1-5.6V0h-1l-0.1,0c-0.7,0.3-2,0.6-3.8,0.9
		c-1.8,0.3-3.5,0.5-4.8,0.5H156v2h0.2c1.9,0,3.1,0.4,3.6,1c0.5,0.7,0.7,2.5,0.7,5.4v31.2c0,3.2-0.1,5.1-0.2,5.8
		c-0.1,0.6-0.4,1.1-0.9,1.4l-0.1,0.1c-0.5,0.3-0.7,0.5-1.9,0.5h-0.2v2h13.5v-2h-1C168.3,48.8,167.4,48.6,166.8,48.2z"/>
	<path class="st0" d="M189.1,6.7c-3.7-0.4-6.5-1-9.5,0.1c-3.9,1.5-5,5.7-5.3,7.9c-1.5,1.3-2.7,2.8-3.6,4.2l0,0.7
		c3.5-5.3,11.6-11.2,18.3-11.7c-1.2,0.3-2.4,0.7-3.6,1.1c1.1,0.3,2.1,0.2,3.3,0.2c-1.3,0.3-2.9,0.4-4,0.1c-1.1,0.4-2.1,0.9-3.2,1.5
		c1.7,0.6,3.2,0.6,5.1,0.6c-1.9,0.4-4.4,0.3-5.8-0.2c-1,0.6-2,1.2-2.9,1.9c1.8,0.8,3.7,0.9,5.8,1.2c-2.2,0.3-4.8,0-6.4-0.7
		c-1.1,0.8-2.1,1.6-3.1,2.5c0.4,0.2,4.3,1.6,7.8,0.6c6.2-1.9,6.5-6.2,9.8-8.8c0.6-0.5,1.1-0.7,1.8-1.1
		C191.9,6.9,190.9,6.9,189.1,6.7z M177.6,12.1c-0.3,0.2-0.6,0.4-0.8,0.6c0.5-1.6,1.5-3.5,2.8-4.7C178.6,9.5,178.1,10.6,177.6,12.1z
		 M181.3,10c-0.3,0.1-0.6,0.3-0.9,0.4c0.6-1.2,1.6-2.4,2.8-3.4C182.4,8,181.8,8.9,181.3,10z M185,8.5c-0.2,0.1-0.4,0.1-0.6,0.2
		c0.5-0.7,1.2-1.4,2.1-1.8C185.9,7.5,185.4,7.9,185,8.5z"/>
</g>
</svg>
